<svg width="27" height="27" viewBox="0 0 27 27" fill="none" xmlns="http://www.w3.org/2000/svg">
<path d="M13.5001 0.5C6.32129 0.5 0.5 6.46751 0.5 13.8291C0.5 19.7183 4.22493 24.7146 9.39027 26.4771C10.04 26.6005 10.2785 26.1879 10.2785 25.8359C10.2785 25.518 10.2664 24.4681 10.2608 23.3543C6.6442 24.1606 5.88105 21.7816 5.88105 21.7816C5.28968 20.241 4.43762 19.8313 4.43762 19.8313C3.25812 19.004 4.52653 19.021 4.52653 19.021C5.83196 19.115 6.51934 20.3946 6.51934 20.3946C7.67882 22.4323 9.56055 21.8432 10.3024 21.5026C10.4191 20.6411 10.756 20.0531 11.1278 19.7203C8.24026 19.3832 5.20486 18.2403 5.20486 13.133C5.20486 11.6777 5.7127 10.4887 6.54431 9.55523C6.40934 9.21951 5.96436 7.86382 6.67025 6.02783C6.67025 6.02783 7.76192 5.66959 10.2462 7.39412C11.2832 7.09879 12.3953 6.95068 13.5001 6.9456C14.6049 6.95068 15.7179 7.09879 16.7568 7.39412C19.2381 5.66959 20.3282 6.02783 20.3282 6.02783C21.0359 7.86382 20.5907 9.21951 20.4557 9.55523C21.2892 10.4887 21.7936 11.6777 21.7936 13.133C21.7936 18.2524 18.7524 19.3797 15.8576 19.7097C16.3239 20.1233 16.7394 20.9345 16.7394 22.178C16.7394 23.9615 16.7243 25.3969 16.7243 25.8359C16.7243 26.1906 16.9583 26.6062 17.6173 26.4753C22.7798 24.7109 26.5 19.7163 26.5 13.8291C26.5 6.46751 20.6796 0.5 13.5001 0.5ZM5.36896 19.4876C5.34033 19.5538 5.23872 19.5737 5.14615 19.5282C5.05186 19.4847 4.9989 19.3945 5.02947 19.328C5.05746 19.2598 5.15928 19.2408 5.25336 19.2865C5.34787 19.33 5.40169 19.4212 5.36896 19.4876ZM6.00842 20.0726C5.94642 20.1316 5.82522 20.1042 5.74299 20.0111C5.65795 19.9181 5.64202 19.7939 5.70488 19.7341C5.76882 19.6751 5.88636 19.7027 5.97161 19.7956C6.05665 19.8897 6.07322 20.013 6.00842 20.0726ZM6.44712 20.8212C6.36747 20.8779 6.23722 20.8247 6.15671 20.7062C6.07706 20.5876 6.07706 20.4455 6.15843 20.3885C6.23916 20.3316 6.36747 20.3828 6.44906 20.5004C6.52849 20.621 6.52849 20.7631 6.44712 20.8212ZM7.18904 21.688C7.11779 21.7686 6.96602 21.747 6.85494 21.6371C6.74127 21.5296 6.70962 21.377 6.7811 21.2965C6.85321 21.2157 7.00584 21.2384 7.11779 21.3475C7.23059 21.4547 7.26504 21.6084 7.18904 21.688ZM8.14791 21.9807C8.11648 22.0851 7.97031 22.1326 7.82306 22.0882C7.67603 22.0425 7.5798 21.9202 7.60951 21.8147C7.64008 21.7097 7.78689 21.6602 7.93522 21.7077C8.08204 21.7531 8.17848 21.8745 8.14791 21.9807ZM9.23914 22.1048C9.2428 22.2148 9.11794 22.3059 8.96337 22.3079C8.80794 22.3114 8.68222 22.2225 8.6805 22.1143C8.6805 22.0033 8.80256 21.913 8.95799 21.9104C9.11256 21.9073 9.23914 21.9956 9.23914 22.1048ZM10.3112 22.0627C10.3297 22.17 10.2222 22.2801 10.0688 22.3095C9.91785 22.3377 9.77813 22.2715 9.75897 22.1651C9.74024 22.0552 9.8496 21.9451 10.0003 21.9166C10.154 21.8892 10.2916 21.9537 10.3112 22.0627Z" fill="white"/>
</svg>
